<svg xmlns="http://www.w3.org/2000/svg" xmlns:xlink="http://www.w3.org/1999/xlink" width="1080" zoomAndPan="magnify" viewBox="0 0 810 809.999993" height="1080" preserveAspectRatio="xMidYMid meet" version="1.0"><defs><clipPath id="7e4ef1e91e"><path d="M 115 737 L 270 737 L 270 764.726562 L 115 764.726562 Z M 115 737 " clip-rule="nonzero"/></clipPath><clipPath id="ec024cf5b2"><path d="M 45.023438 181 L 82 181 L 82 184 L 45.023438 184 Z M 45.023438 181 " clip-rule="nonzero"/></clipPath><clipPath id="fa0704bee6"><path d="M 561 45.476562 L 572 45.476562 L 572 56 L 561 56 Z M 561 45.476562 " clip-rule="nonzero"/></clipPath><clipPath id="2b52f2764b"><path d="M 45.023438 335 L 56 335 L 56 346 L 45.023438 346 Z M 45.023438 335 " clip-rule="nonzero"/></clipPath></defs><rect x="-81" width="972" fill="#ffffff" y="-80.999999" height="971.999992" fill-opacity="1"/><rect x="-81" width="972" fill="#ffffff" y="-80.999999" height="971.999992" fill-opacity="1"/><g clip-path="url(#7e4ef1e91e)"><path fill="#c4c3c4" d="M 192.875 764.777344 C 150.335938 764.777344 115.855469 758.640625 115.855469 751.082031 C 115.855469 743.515625 150.335938 737.378906 192.875 737.378906 C 235.40625 737.378906 269.882812 743.515625 269.882812 751.082031 C 269.882812 758.640625 235.40625 764.777344 192.875 764.777344 " fill-opacity="1" fill-rule="nonzero"/></g><path fill="#c4c3c4" d="M 350.128906 729.117188 C 307.59375 729.117188 273.113281 722.980469 273.113281 715.410156 C 273.113281 707.851562 307.59375 701.714844 350.128906 701.714844 C 392.667969 701.714844 427.140625 707.851562 427.140625 715.410156 C 427.140625 722.980469 392.667969 729.117188 350.128906 729.117188 " fill-opacity="1" fill-rule="nonzero"/><path fill="#c4c3c4" d="M 528.96875 736.710938 C 472.738281 736.710938 427.15625 730.574219 427.15625 723.015625 C 427.15625 715.449219 472.738281 709.320312 528.96875 709.320312 C 585.203125 709.320312 630.789062 715.449219 630.789062 723.015625 C 630.789062 730.574219 585.203125 736.710938 528.96875 736.710938 " fill-opacity="1" fill-rule="nonzero"/><path fill="#29242c" d="M 645.980469 500.277344 C 645.980469 517.667969 631.886719 531.765625 614.503906 531.765625 C 597.117188 531.765625 583.03125 517.667969 583.03125 500.277344 C 583.03125 482.890625 597.117188 468.792969 614.503906 468.792969 C 631.886719 468.792969 645.980469 482.890625 645.980469 500.277344 " fill-opacity="1" fill-rule="nonzero"/><path fill="#ffffff" d="M 635.683594 500.277344 C 635.683594 511.976562 626.199219 521.464844 614.503906 521.464844 C 602.8125 521.464844 593.328125 511.976562 593.328125 500.277344 C 593.328125 488.582031 602.8125 479.097656 614.503906 479.097656 C 626.199219 479.097656 635.683594 488.582031 635.683594 500.277344 " fill-opacity="1" fill-rule="nonzero"/><path fill="#29242c" d="M 625.933594 500.277344 C 625.933594 506.589844 620.820312 511.710938 614.503906 511.710938 C 608.191406 511.710938 603.078125 506.589844 603.078125 500.277344 C 603.078125 493.96875 608.191406 488.851562 614.503906 488.851562 C 620.820312 488.851562 625.933594 493.96875 625.933594 500.277344 " fill-opacity="1" fill-rule="nonzero"/><path fill="#29242c" d="M 429.886719 380.335938 C 424.492188 380.351562 417.3125 379.117188 409.082031 376.628906 C 394.648438 372.300781 376.984375 364.226562 358.5 353.460938 C 330.769531 337.320312 301.128906 315.109375 276.738281 290.5625 C 264.542969 278.296875 253.648438 265.441406 244.949219 252.539062 C 236.234375 239.632812 229.71875 226.675781 226.132812 214.289062 C 221.503906 198.292969 219.484375 184.03125 219.484375 171.453125 C 219.492188 158.929688 221.472656 148.078125 224.882812 138.734375 C 230.007812 124.730469 238.296875 114.050781 248.328125 106.265625 C 258.351562 98.488281 270.171875 93.652344 282.125 91.714844 C 287.980469 90.761719 293.707031 90.359375 299.199219 90.359375 C 313.480469 90.351562 326.199219 93.089844 335.277344 95.832031 C 339.816406 97.199219 343.441406 98.5625 345.890625 99.578125 C 347.117188 100.074219 348.054688 100.492188 348.660156 100.765625 C 348.960938 100.910156 349.1875 101.015625 349.324219 101.074219 L 349.46875 101.144531 L 349.492188 101.15625 L 350.753906 98.601562 L 349.476562 101.152344 L 349.492188 101.15625 L 350.753906 98.601562 L 349.476562 101.152344 L 356.171875 87.765625 C 355.875 87.613281 349.71875 84.554688 339.597656 81.5 C 329.472656 78.449219 315.378906 75.394531 299.199219 75.394531 C 292.972656 75.394531 286.441406 75.847656 279.726562 76.9375 C 260.699219 80.03125 241.882812 89.246094 227.765625 105.0625 C 220.714844 112.960938 214.867188 122.503906 210.820312 133.605469 C 206.773438 144.707031 204.519531 157.34375 204.519531 171.453125 C 204.519531 185.632812 206.789062 201.289062 211.765625 218.453125 C 218.121094 240.304688 231.601562 261.929688 248.875 282.367188 C 274.816406 312.992188 309.417969 340.929688 342.691406 361.425781 C 359.335938 371.679688 375.628906 380.058594 390.457031 385.945312 C 397.871094 388.878906 404.921875 391.203125 411.511719 392.808594 C 418.101562 394.402344 424.230469 395.304688 429.886719 395.3125 L 429.886719 380.335938 " fill-opacity="1" fill-rule="nonzero"/><path fill="#29242c" d="M 389.214844 123.617188 C 385.933594 124.207031 385.878906 119.324219 381.628906 117.660156 C 374.09375 114.695312 362.359375 113.566406 354.386719 107.96875 C 353.152344 107.105469 353.871094 105.902344 353.386719 105.683594 C 352.457031 105.265625 351.09375 106.484375 350.277344 106.113281 C 347.417969 104.828125 345.382812 103.898438 344.71875 103.585938 C 341.222656 101.945312 342.328125 98.359375 342.328125 98.359375 L 348.5 84.632812 C 348.5 84.632812 351.375 80.320312 354.355469 81.664062 C 354.992188 81.953125 358.378906 82.875 359.460938 83.957031 C 360.550781 85.046875 361.15625 88.265625 361.617188 88.46875 C 362.578125 88.898438 362.746094 85.796875 365.210938 86.546875 C 374.601562 89.40625 383.722656 96.367188 390.609375 99.507812 C 395.191406 101.605469 396.253906 99.183594 399.042969 101.777344 C 401.835938 104.375 392.5 123.027344 389.214844 123.617188 " fill-opacity="1" fill-rule="nonzero"/><path fill="#29242c" d="M 429.886719 395.3125 C 437.445312 395.296875 445.78125 393.714844 454.867188 390.960938 C 470.746094 386.109375 488.917969 377.574219 507.792969 366.359375 C 536.089844 349.53125 565.878906 326.6875 590.792969 301.058594 C 603.246094 288.242188 614.464844 274.71875 623.640625 260.855469 C 632.816406 246.988281 639.953125 232.761719 644.105469 218.453125 C 649.074219 201.289062 651.34375 185.632812 651.34375 171.453125 C 651.34375 157.347656 649.089844 144.707031 645.042969 133.605469 C 638.976562 116.949219 628.851562 103.835938 616.703125 94.429688 C 604.546875 85.019531 590.414062 79.257812 576.144531 76.9375 C 569.421875 75.847656 562.890625 75.394531 556.664062 75.394531 C 540.484375 75.394531 526.390625 78.449219 516.265625 81.5 C 506.144531 84.554688 499.988281 87.613281 499.691406 87.765625 L 506.386719 101.152344 L 505.09375 98.5625 L 506.378906 101.15625 L 506.386719 101.152344 L 505.09375 98.5625 L 506.378906 101.15625 C 506.441406 101.128906 511.96875 98.394531 521.019531 95.703125 C 530.058594 93.007812 542.601562 90.351562 556.664062 90.359375 C 562.160156 90.359375 567.894531 90.761719 573.75 91.714844 C 589.695312 94.300781 605.339844 102.019531 616.929688 115.027344 C 622.742188 121.542969 627.574219 129.390625 630.980469 138.734375 C 634.390625 148.078125 636.378906 158.929688 636.378906 171.453125 C 636.378906 184.03125 634.367188 198.292969 629.730469 214.289062 C 624.269531 233.230469 612.171875 253.402344 596.132812 272.757812 C 572.089844 301.816406 539.296875 329.011719 507.945312 348.722656 C 492.277344 358.582031 476.964844 366.582031 463.410156 372.042969 C 456.628906 374.773438 450.296875 376.871094 444.625 378.261719 C 438.949219 379.664062 433.933594 380.34375 429.886719 380.335938 L 429.886719 395.3125 " fill-opacity="1" fill-rule="nonzero"/><path fill="#29242c" d="M 466.648438 123.617188 C 469.929688 124.207031 469.992188 119.324219 474.234375 117.660156 C 481.777344 114.695312 493.503906 113.566406 501.476562 107.96875 C 502.710938 107.105469 502 105.902344 502.484375 105.683594 C 503.40625 105.265625 504.777344 106.484375 505.585938 106.113281 C 508.445312 104.828125 510.488281 103.898438 511.152344 103.585938 C 514.640625 101.945312 513.542969 98.359375 513.542969 98.359375 L 507.363281 84.632812 C 507.363281 84.632812 504.488281 80.320312 501.515625 81.664062 C 500.871094 81.953125 497.492188 82.875 496.402344 83.957031 C 495.320312 85.046875 494.707031 88.265625 494.253906 88.46875 C 493.292969 88.898438 493.125 85.796875 490.652344 86.546875 C 481.261719 89.40625 472.148438 96.367188 465.253906 99.507812 C 460.671875 101.605469 459.613281 99.183594 456.820312 101.777344 C 454.035156 104.375 463.363281 123.027344 466.648438 123.617188 " fill-opacity="1" fill-rule="nonzero"/><path fill="#29242c" d="M 429.886719 387.820312 C 387.492188 390.566406 305.75 326.386719 305.75 326.386719 L 551.890625 326.386719 C 551.890625 326.386719 472.289062 385.082031 429.886719 387.820312 " fill-opacity="1" fill-rule="nonzero"/><path fill="#29242c" d="M 422.40625 387.820312 C 422.40625 434.832031 422.40625 481.847656 422.40625 528.859375 C 422.414062 538.898438 421.738281 550.910156 421.050781 563.894531 C 420.363281 576.886719 419.675781 590.871094 419.675781 605.003906 C 419.683594 624.699219 421 644.675781 425.75 662.859375 C 428.125 671.957031 431.378906 680.613281 435.832031 688.503906 C 440.289062 696.398438 445.964844 703.523438 453.105469 709.410156 C 458.960938 714.253906 465.527344 717.652344 472.335938 719.808594 C 479.152344 721.964844 486.210938 722.894531 493.199219 722.894531 C 504.730469 722.894531 516.09375 720.375 526.214844 716.34375 C 536.339844 712.292969 545.21875 706.761719 551.816406 700.210938 C 561.167969 690.878906 568.980469 678.855469 574.558594 665.578125 C 580.125 652.296875 583.445312 637.753906 583.453125 623.300781 C 583.460938 609.058594 580.179688 594.828125 572.347656 582.46875 C 571.046875 580.417969 569.335938 577.921875 567.265625 574.992188 C 560.054688 564.792969 548.539062 549.484375 537.957031 534.988281 C 532.675781 527.753906 527.621094 520.722656 523.507812 514.722656 C 521.449219 511.71875 519.625 508.972656 518.136719 506.613281 C 516.644531 504.25 515.488281 502.253906 514.800781 500.890625 C 507.03125 485.539062 503.011719 470.957031 503.027344 457.796875 C 503.027344 450.324219 504.292969 443.292969 506.910156 436.625 C 509.535156 429.96875 513.519531 423.640625 519.140625 417.640625 C 525.097656 411.300781 532.472656 406.398438 540.523438 403.089844 C 548.570312 399.777344 557.277344 398.074219 565.773438 398.074219 C 577.992188 398.074219 589.644531 401.585938 598.539062 408.484375 C 606.859375 414.933594 612.65625 422.417969 616.445312 430.480469 C 620.230469 438.554688 622 447.257812 622 456.097656 C 622.007812 468.648438 618.382812 481.460938 611.960938 492.605469 C 609.894531 496.183594 611.128906 500.761719 614.707031 502.820312 C 618.292969 504.886719 622.863281 503.652344 624.925781 500.074219 C 632.589844 486.765625 636.957031 471.511719 636.964844 456.097656 C 636.964844 445.261719 634.777344 434.332031 629.996094 424.132812 C 625.214844 413.925781 617.832031 404.484375 607.699219 396.652344 C 595.734375 387.398438 580.804688 383.105469 565.773438 383.105469 C 555.296875 383.105469 544.710938 385.1875 534.832031 389.242188 C 524.960938 393.304688 515.777344 399.367188 508.242188 407.394531 C 501.410156 414.660156 496.324219 422.652344 492.988281 431.148438 C 489.636719 439.644531 488.058594 448.621094 488.0625 457.796875 C 488.070312 474 492.921875 490.773438 501.445312 507.640625 C 502.636719 510.003906 504.230469 512.660156 506.199219 515.730469 C 509.625 521.074219 514.15625 527.574219 519.1875 534.585938 C 526.730469 545.105469 535.390625 556.75 542.917969 566.957031 C 546.6875 572.066406 550.175781 576.816406 553.078125 580.867188 C 555.976562 584.914062 558.324219 588.289062 559.714844 590.484375 C 565.75 600.003906 568.492188 611.308594 568.492188 623.300781 C 568.496094 635.429688 565.644531 648.164062 560.765625 659.789062 C 555.894531 671.410156 548.988281 681.90625 541.246094 689.609375 C 536.527344 694.347656 529.171875 699.066406 520.671875 702.441406 C 512.167969 705.847656 502.519531 707.9375 493.199219 707.9375 C 487.542969 707.9375 482.011719 707.171875 476.859375 705.539062 C 471.699219 703.902344 466.917969 701.40625 462.628906 697.863281 C 457.0625 693.269531 452.554688 687.664062 448.859375 681.140625 C 443.339844 671.371094 439.722656 659.5 437.550781 646.457031 C 435.378906 633.425781 434.636719 619.261719 434.636719 605.003906 C 434.636719 591.359375 435.3125 577.636719 435.992188 564.679688 C 436.671875 551.71875 437.371094 539.550781 437.378906 528.859375 C 437.378906 481.847656 437.378906 434.832031 437.378906 387.820312 C 437.378906 383.6875 434.027344 380.335938 429.886719 380.335938 C 425.757812 380.335938 422.40625 383.6875 422.40625 387.820312 " fill-opacity="1" fill-rule="nonzero"/><path fill="#ef303f" d="M 446.492188 356.359375 C 404.363281 356.359375 367.898438 380.519531 350.128906 415.734375 C 332.363281 380.519531 295.898438 356.359375 253.761719 356.359375 C 194.175781 356.359375 145.867188 404.671875 145.867188 464.277344 C 145.867188 574.410156 319.769531 715.410156 350.128906 715.410156 C 380.488281 715.410156 554.394531 574.410156 554.394531 464.277344 C 554.394531 404.671875 506.085938 356.359375 446.492188 356.359375 " fill-opacity="1" fill-rule="nonzero"/><path fill="#ffffff" d="M 155.527344 549.265625 L 199.730469 549.265625 L 212.304688 508.375 L 231.535156 604.566406 L 248.328125 526.15625 L 257.71875 549.265625 L 303.277344 549.265625 L 309.835938 490.859375 L 326.71875 644.867188 L 341.207031 549.265625 L 371.292969 549.265625 L 376.289062 537.097656 L 383.835938 575.796875 L 397.410156 537.628906 L 406.292969 552.71875 L 419 534.785156 L 432.269531 556.167969 L 443.15625 501.730469 L 451.992188 598.921875 L 468.25 549.265625 L 548.375 549.265625 C 550.644531 549.265625 552.488281 547.421875 552.488281 545.152344 C 552.488281 542.871094 550.644531 541.035156 548.375 541.035156 L 462.28125 541.035156 L 456.585938 558.445312 L 446.214844 444.464844 L 428.285156 534.125 L 419.453125 519.890625 L 406.933594 537.574219 L 395.554688 518.257812 L 386.160156 544.6875 L 379.101562 508.550781 L 365.78125 541.035156 L 334.125 541.035156 L 328.027344 581.28125 L 309.933594 416.265625 L 295.914062 541.035156 L 263.253906 541.035156 L 245.886719 498.265625 L 231.8125 563.960938 L 214 474.871094 L 193.648438 541.035156 L 155.527344 541.035156 C 153.25 541.035156 151.410156 542.871094 151.410156 545.152344 C 151.410156 547.421875 153.25 549.265625 155.527344 549.265625 " fill-opacity="1" fill-rule="nonzero"/><path fill="#29242c" d="M 292.351562 654.535156 C 292.351562 707.851562 249.132812 751.082031 195.828125 751.082031 C 142.523438 751.082031 99.308594 707.851562 99.308594 654.535156 C 99.308594 601.222656 142.523438 558 195.828125 558 C 249.132812 558 292.351562 601.222656 292.351562 654.535156 " fill-opacity="1" fill-rule="nonzero"/><path fill="#120f10" d="M 274.996094 599.335938 C 280.835938 611.785156 286.109375 633.894531 286.109375 648.550781 C 286.109375 701.867188 241.398438 741.601562 188.09375 741.601562 C 155.316406 741.601562 125.878906 720.496094 108.433594 695.519531 C 123.84375 728.34375 157.175781 751.082031 195.828125 751.082031 C 249.132812 751.082031 292.351562 707.851562 292.351562 654.535156 C 292.351562 634.007812 285.921875 614.984375 274.996094 599.335938 " fill-opacity="1" fill-rule="nonzero"/><path fill="#474152" d="M 193.980469 562.371094 C 144.308594 562.371094 104.046875 603.25 104.046875 653.667969 C 104.046875 662.929688 109.160156 668.332031 109.160156 659.570312 C 109.160156 609.144531 149.421875 568.265625 199.085938 568.265625 C 224.628906 568.265625 247.664062 579.09375 264.035156 596.453125 C 247.550781 575.675781 222.296875 562.371094 193.980469 562.371094 " fill-opacity="1" fill-rule="nonzero"/><path fill="#ffffff" d="M 273.640625 654.535156 C 273.640625 697.523438 238.804688 732.371094 195.828125 732.371094 C 152.855469 732.371094 118.019531 697.523438 118.019531 654.535156 C 118.019531 611.550781 152.855469 576.703125 195.828125 576.703125 C 238.804688 576.703125 273.640625 611.550781 273.640625 654.535156 " fill-opacity="1" fill-rule="nonzero"/><path fill="#ee2629" d="M 205.554688 654.535156 C 205.554688 659.910156 201.199219 664.269531 195.828125 664.269531 C 190.457031 664.269531 186.105469 659.910156 186.105469 654.535156 C 186.105469 649.164062 195.828125 594.417969 195.828125 594.417969 C 195.828125 594.417969 205.554688 649.164062 205.554688 654.535156 " fill-opacity="1" fill-rule="nonzero"/><path fill="#a8e3fa" d="M 249.828125 598.527344 C 258.246094 610.960938 263.171875 625.964844 263.171875 642.113281 C 263.171875 685.097656 228.328125 719.945312 185.355469 719.945312 C 164.378906 719.945312 145.351562 711.628906 131.355469 698.128906 C 145.351562 718.785156 169 732.371094 195.828125 732.371094 C 238.804688 732.371094 273.640625 697.523438 273.640625 654.535156 C 273.640625 632.53125 264.503906 612.675781 249.828125 598.527344 " fill-opacity="1" fill-rule="nonzero"/><path fill="#29242c" d="M 197.171875 592.917969 C 197.171875 593.746094 196.210938 594.417969 195.023438 594.417969 C 193.835938 594.417969 192.875 593.746094 192.875 592.917969 L 192.875 581.199219 C 192.875 580.367188 193.835938 579.699219 195.023438 579.699219 C 196.210938 579.699219 197.171875 580.367188 197.171875 581.199219 L 197.171875 592.917969 " fill-opacity="1" fill-rule="nonzero"/><path fill="#29242c" d="M 197.171875 728.875 C 197.171875 729.707031 196.210938 730.371094 195.023438 730.371094 C 193.835938 730.371094 192.875 729.707031 192.875 728.875 L 192.875 717.152344 C 192.875 716.328125 193.835938 715.652344 195.023438 715.652344 C 196.210938 715.652344 197.171875 716.328125 197.171875 717.152344 L 197.171875 728.875 " fill-opacity="1" fill-rule="nonzero"/><path fill="#29242c" d="M 257.128906 657.183594 C 256.304688 657.183594 255.628906 656.222656 255.628906 655.035156 C 255.628906 653.847656 256.304688 652.886719 257.128906 652.886719 L 268.847656 652.886719 C 269.679688 652.886719 270.34375 653.847656 270.34375 655.035156 C 270.34375 656.222656 269.679688 657.183594 268.847656 657.183594 L 257.128906 657.183594 " fill-opacity="1" fill-rule="nonzero"/><path fill="#29242c" d="M 121.195312 657.183594 C 120.371094 657.183594 119.703125 656.222656 119.703125 655.035156 C 119.703125 653.847656 120.371094 652.886719 121.195312 652.886719 L 132.921875 652.886719 C 133.746094 652.886719 134.410156 653.847656 134.410156 655.035156 C 134.410156 656.222656 133.746094 657.183594 132.921875 657.183594 L 121.195312 657.183594 " fill-opacity="1" fill-rule="nonzero"/><path fill="#4f4c4c" d="M 672.859375 431.542969 C 672.253906 432.148438 671.476562 432.441406 670.6875 432.441406 C 669.902344 432.441406 669.128906 432.148438 668.527344 431.542969 C 667.929688 430.945312 667.632812 430.164062 667.632812 429.378906 C 667.632812 428.589844 667.929688 427.8125 668.527344 427.214844 C 668.828125 426.910156 668.828125 426.425781 668.527344 426.125 C 668.230469 425.828125 667.746094 425.828125 667.445312 426.125 C 666.550781 427.023438 666.097656 428.203125 666.097656 429.378906 C 666.097656 430.550781 666.550781 431.730469 667.445312 432.625 C 668.335938 433.523438 669.515625 433.972656 670.6875 433.972656 C 671.871094 433.972656 673.042969 433.523438 673.941406 432.625 C 674.238281 432.328125 674.238281 431.84375 673.941406 431.542969 C 673.640625 431.246094 673.15625 431.246094 672.859375 431.542969 " fill-opacity="1" fill-rule="nonzero"/><path fill="#4f4c4c" d="M 657.8125 432.625 C 658.707031 433.523438 659.886719 433.972656 661.058594 433.972656 C 662.230469 433.972656 663.417969 433.523438 664.3125 432.625 C 665.203125 431.730469 665.660156 430.550781 665.660156 429.378906 C 665.660156 428.203125 665.203125 427.023438 664.3125 426.125 C 664.007812 425.828125 663.523438 425.828125 663.230469 426.125 C 662.925781 426.425781 662.925781 426.910156 663.230469 427.214844 C 663.828125 427.8125 664.121094 428.589844 664.121094 429.378906 C 664.121094 430.164062 663.828125 430.945312 663.230469 431.542969 C 662.625 432.148438 661.84375 432.441406 661.058594 432.441406 C 660.273438 432.441406 659.492188 432.148438 658.894531 431.542969 C 658.59375 431.246094 658.109375 431.246094 657.8125 431.542969 C 657.511719 431.84375 657.511719 432.328125 657.8125 432.625 " fill-opacity="1" fill-rule="nonzero"/><path fill="#4f4c4c" d="M 658.894531 437.308594 C 659.5 436.703125 660.28125 436.40625 661.066406 436.40625 C 661.851562 436.40625 662.625 436.703125 663.230469 437.300781 C 663.828125 437.90625 664.121094 438.683594 664.121094 439.472656 C 664.121094 440.25 663.828125 441.039062 663.230469 441.636719 C 662.925781 441.9375 662.925781 442.421875 663.230469 442.71875 C 663.523438 443.019531 664.007812 443.019531 664.3125 442.71875 C 665.203125 441.824219 665.660156 440.644531 665.660156 439.472656 C 665.660156 438.300781 665.203125 437.117188 664.3125 436.21875 C 663.417969 435.324219 662.238281 434.871094 661.066406 434.878906 C 659.894531 434.871094 658.714844 435.324219 657.8125 436.21875 C 657.519531 436.519531 657.519531 437.003906 657.8125 437.300781 C 658.117188 437.601562 658.601562 437.601562 658.894531 437.308594 " fill-opacity="1" fill-rule="nonzero"/><path fill="#4f4c4c" d="M 673.941406 436.21875 C 673.050781 435.324219 671.871094 434.871094 670.695312 434.878906 C 669.523438 434.871094 668.335938 435.324219 667.445312 436.21875 C 666.550781 437.117188 666.097656 438.300781 666.097656 439.472656 C 666.097656 440.644531 666.550781 441.824219 667.445312 442.71875 C 667.746094 443.019531 668.230469 443.019531 668.527344 442.71875 C 668.828125 442.421875 668.828125 441.9375 668.527344 441.636719 C 667.929688 441.039062 667.632812 440.257812 667.632812 439.472656 C 667.632812 438.683594 667.929688 437.90625 668.527344 437.300781 C 669.128906 436.703125 669.910156 436.40625 670.695312 436.40625 C 671.476562 436.40625 672.261719 436.703125 672.859375 437.300781 C 673.15625 437.601562 673.640625 437.601562 673.941406 437.308594 C 674.238281 437.003906 674.238281 436.519531 673.941406 436.21875 " fill-opacity="1" fill-rule="nonzero"/><path fill="#4f4c4c" d="M 80.457031 584.179688 C 79.859375 584.777344 79.070312 585.074219 78.292969 585.074219 C 77.507812 585.074219 76.726562 584.777344 76.128906 584.179688 C 75.523438 583.574219 75.230469 582.804688 75.230469 582.015625 C 75.230469 581.230469 75.523438 580.441406 76.121094 579.84375 C 76.425781 579.542969 76.425781 579.058594 76.121094 578.761719 C 75.828125 578.460938 75.34375 578.460938 75.039062 578.761719 C 74.148438 579.65625 73.691406 580.835938 73.691406 582.015625 C 73.691406 583.179688 74.148438 584.371094 75.039062 585.261719 C 75.933594 586.15625 77.113281 586.609375 78.292969 586.609375 C 79.464844 586.609375 80.644531 586.15625 81.539062 585.261719 C 81.839844 584.960938 81.839844 584.476562 81.539062 584.179688 C 81.234375 583.878906 80.75 583.878906 80.457031 584.179688 " fill-opacity="1" fill-rule="nonzero"/><path fill="#4f4c4c" d="M 65.410156 585.261719 C 66.308594 586.15625 67.488281 586.609375 68.664062 586.609375 C 69.835938 586.609375 71.015625 586.15625 71.90625 585.261719 C 72.800781 584.371094 73.253906 583.1875 73.253906 582.015625 C 73.253906 580.835938 72.800781 579.664062 71.90625 578.761719 C 71.613281 578.460938 71.128906 578.460938 70.824219 578.761719 C 70.523438 579.058594 70.523438 579.542969 70.824219 579.84375 C 71.421875 580.441406 71.71875 581.230469 71.71875 582.015625 C 71.71875 582.804688 71.421875 583.574219 70.824219 584.179688 C 70.226562 584.777344 69.449219 585.074219 68.664062 585.074219 C 67.875 585.074219 67.097656 584.777344 66.492188 584.179688 C 66.195312 583.878906 65.710938 583.878906 65.410156 584.179688 C 65.113281 584.476562 65.113281 584.960938 65.410156 585.261719 " fill-opacity="1" fill-rule="nonzero"/><path fill="#4f4c4c" d="M 66.492188 589.9375 C 67.097656 589.339844 67.875 589.046875 68.664062 589.039062 C 69.449219 589.046875 70.226562 589.339844 70.824219 589.9375 C 71.421875 590.535156 71.71875 591.316406 71.726562 592.101562 C 71.71875 592.890625 71.421875 593.667969 70.824219 594.273438 C 70.523438 594.570312 70.523438 595.054688 70.824219 595.355469 C 71.128906 595.652344 71.613281 595.652344 71.90625 595.355469 C 72.800781 594.457031 73.253906 593.277344 73.253906 592.101562 C 73.253906 590.929688 72.800781 589.75 71.90625 588.855469 C 71.015625 587.957031 69.835938 587.507812 68.664062 587.507812 C 67.488281 587.507812 66.308594 587.957031 65.410156 588.855469 C 65.113281 589.152344 65.113281 589.636719 65.410156 589.9375 C 65.710938 590.242188 66.195312 590.242188 66.492188 589.9375 " fill-opacity="1" fill-rule="nonzero"/><path fill="#4f4c4c" d="M 81.539062 588.855469 C 80.644531 587.957031 79.464844 587.507812 78.292969 587.507812 C 77.121094 587.507812 75.933594 587.957031 75.039062 588.855469 C 74.148438 589.75 73.691406 590.929688 73.691406 592.101562 C 73.691406 593.277344 74.148438 594.457031 75.039062 595.355469 C 75.34375 595.652344 75.828125 595.652344 76.121094 595.355469 C 76.425781 595.054688 76.425781 594.570312 76.128906 594.273438 C 75.523438 593.667969 75.230469 592.890625 75.230469 592.101562 C 75.230469 591.316406 75.523438 590.535156 76.121094 589.9375 C 76.726562 589.339844 77.507812 589.046875 78.292969 589.039062 C 79.078125 589.046875 79.859375 589.339844 80.457031 589.9375 C 80.75 590.242188 81.234375 590.242188 81.539062 589.9375 C 81.839844 589.636719 81.839844 589.152344 81.539062 588.855469 " fill-opacity="1" fill-rule="nonzero"/><path fill="#4f4c4c" d="M 189.160156 283.8125 C 188.554688 284.410156 187.777344 284.707031 186.992188 284.707031 C 186.203125 284.707031 185.433594 284.410156 184.828125 283.8125 C 184.230469 283.207031 183.933594 282.429688 183.933594 281.640625 C 183.933594 280.863281 184.230469 280.082031 184.828125 279.476562 C 185.128906 279.183594 185.128906 278.699219 184.828125 278.394531 C 184.53125 278.09375 184.039062 278.09375 183.746094 278.394531 C 182.851562 279.289062 182.398438 280.476562 182.398438 281.640625 C 182.398438 282.824219 182.851562 284.003906 183.746094 284.894531 C 184.636719 285.789062 185.816406 286.242188 186.992188 286.242188 C 188.164062 286.242188 189.34375 285.789062 190.242188 284.894531 C 190.539062 284.59375 190.539062 284.109375 190.242188 283.8125 C 189.941406 283.511719 189.457031 283.511719 189.160156 283.8125 " fill-opacity="1" fill-rule="nonzero"/><path fill="#4f4c4c" d="M 174.113281 284.894531 C 175.007812 285.789062 176.1875 286.242188 177.367188 286.242188 C 178.53125 286.242188 179.71875 285.789062 180.613281 284.894531 C 181.503906 284.003906 181.960938 282.824219 181.960938 281.640625 C 181.960938 280.46875 181.503906 279.289062 180.613281 278.394531 C 180.308594 278.09375 179.824219 278.09375 179.53125 278.394531 C 179.226562 278.691406 179.226562 279.183594 179.53125 279.476562 C 180.128906 280.074219 180.421875 280.863281 180.421875 281.640625 C 180.421875 282.429688 180.128906 283.207031 179.53125 283.8125 C 178.925781 284.410156 178.148438 284.707031 177.367188 284.707031 C 176.582031 284.707031 175.792969 284.410156 175.195312 283.8125 C 174.894531 283.511719 174.410156 283.511719 174.113281 283.8125 C 173.8125 284.109375 173.8125 284.59375 174.113281 284.894531 " fill-opacity="1" fill-rule="nonzero"/><path fill="#4f4c4c" d="M 175.195312 289.574219 C 175.792969 288.976562 176.582031 288.671875 177.367188 288.671875 C 178.148438 288.671875 178.925781 288.976562 179.53125 289.574219 C 180.128906 290.171875 180.421875 290.949219 180.421875 291.738281 C 180.421875 292.523438 180.128906 293.304688 179.53125 293.910156 C 179.226562 294.203125 179.226562 294.6875 179.53125 294.992188 C 179.824219 295.285156 180.308594 295.285156 180.613281 294.992188 C 181.503906 294.089844 181.960938 292.910156 181.960938 291.738281 C 181.960938 290.5625 181.503906 289.382812 180.613281 288.492188 C 179.71875 287.589844 178.53125 287.144531 177.367188 287.144531 C 176.1875 287.144531 175.007812 287.589844 174.113281 288.492188 C 173.820312 288.785156 173.820312 289.277344 174.113281 289.574219 C 174.417969 289.867188 174.902344 289.867188 175.195312 289.574219 " fill-opacity="1" fill-rule="nonzero"/><path fill="#4f4c4c" d="M 190.242188 288.492188 C 189.351562 287.589844 188.171875 287.144531 186.992188 287.144531 C 185.816406 287.144531 184.636719 287.589844 183.746094 288.492188 C 182.851562 289.382812 182.398438 290.5625 182.398438 291.738281 C 182.398438 292.910156 182.851562 294.089844 183.746094 294.992188 C 184.039062 295.285156 184.523438 295.285156 184.828125 294.992188 C 185.128906 294.6875 185.128906 294.203125 184.828125 293.910156 C 184.230469 293.304688 183.933594 292.523438 183.933594 291.738281 C 183.933594 290.949219 184.230469 290.171875 184.828125 289.574219 C 185.425781 288.976562 186.203125 288.671875 186.992188 288.671875 C 187.777344 288.671875 188.554688 288.976562 189.160156 289.574219 C 189.457031 289.867188 189.941406 289.867188 190.242188 289.574219 C 190.539062 289.277344 190.539062 288.785156 190.242188 288.492188 " fill-opacity="1" fill-rule="nonzero"/><path fill="#4f4c4c" d="M 738.972656 56.507812 C 738.367188 57.105469 737.589844 57.40625 736.808594 57.40625 C 736.023438 57.40625 735.242188 57.105469 734.636719 56.507812 C 734.039062 55.910156 733.746094 55.128906 733.746094 54.34375 C 733.746094 53.554688 734.039062 52.777344 734.636719 52.179688 C 734.941406 51.875 734.941406 51.390625 734.636719 51.097656 C 734.34375 50.792969 733.859375 50.792969 733.554688 51.097656 C 732.664062 51.988281 732.210938 53.167969 732.210938 54.34375 C 732.210938 55.515625 732.664062 56.695312 733.554688 57.589844 C 734.449219 58.488281 735.628906 58.933594 736.808594 58.933594 C 737.980469 58.933594 739.164062 58.488281 740.054688 57.589844 C 740.351562 57.292969 740.351562 56.808594 740.054688 56.507812 C 739.761719 56.210938 739.277344 56.210938 738.972656 56.507812 " fill-opacity="1" fill-rule="nonzero"/><path fill="#4f4c4c" d="M 723.925781 57.589844 C 724.824219 58.488281 726.007812 58.933594 727.179688 58.933594 C 728.351562 58.933594 729.53125 58.488281 730.425781 57.589844 C 731.316406 56.695312 731.769531 55.515625 731.769531 54.34375 C 731.769531 53.167969 731.316406 51.988281 730.425781 51.097656 C 730.128906 50.792969 729.644531 50.792969 729.34375 51.097656 C 729.039062 51.390625 729.039062 51.875 729.34375 52.179688 C 729.941406 52.777344 730.234375 53.554688 730.234375 54.34375 C 730.234375 55.128906 729.941406 55.910156 729.34375 56.507812 C 728.738281 57.105469 727.964844 57.40625 727.179688 57.40625 C 726.390625 57.40625 725.613281 57.105469 725.007812 56.507812 C 724.710938 56.210938 724.226562 56.210938 723.925781 56.507812 C 723.628906 56.808594 723.628906 57.292969 723.925781 57.589844 " fill-opacity="1" fill-rule="nonzero"/><path fill="#4f4c4c" d="M 725.007812 62.273438 C 725.613281 61.667969 726.390625 61.371094 727.179688 61.371094 C 727.964844 61.371094 728.738281 61.667969 729.34375 62.273438 C 729.941406 62.871094 730.234375 63.648438 730.242188 64.4375 C 730.234375 65.222656 729.941406 66.003906 729.34375 66.601562 C 729.039062 66.902344 729.039062 67.386719 729.34375 67.683594 C 729.644531 67.984375 730.128906 67.984375 730.425781 67.683594 C 731.316406 66.789062 731.769531 65.609375 731.769531 64.4375 C 731.769531 63.261719 731.316406 62.082031 730.425781 61.191406 C 729.53125 60.289062 728.351562 59.835938 727.179688 59.84375 C 726.007812 59.835938 724.824219 60.289062 723.925781 61.183594 C 723.628906 61.484375 723.628906 61.96875 723.925781 62.273438 C 724.226562 62.566406 724.710938 62.566406 725.007812 62.273438 " fill-opacity="1" fill-rule="nonzero"/><path fill="#4f4c4c" d="M 740.054688 61.191406 C 739.164062 60.289062 737.980469 59.835938 736.808594 59.84375 C 735.636719 59.835938 734.449219 60.289062 733.554688 61.191406 C 732.664062 62.082031 732.210938 63.261719 732.210938 64.4375 C 732.210938 65.609375 732.664062 66.789062 733.554688 67.683594 C 733.859375 67.984375 734.34375 67.984375 734.636719 67.683594 C 734.941406 67.386719 734.941406 66.902344 734.644531 66.601562 C 734.039062 66.003906 733.746094 65.222656 733.746094 64.4375 C 733.746094 63.648438 734.039062 62.871094 734.636719 62.273438 C 735.242188 61.667969 736.023438 61.371094 736.808594 61.371094 C 737.589844 61.371094 738.375 61.667969 738.972656 62.273438 C 739.269531 62.566406 739.761719 62.566406 740.054688 62.273438 C 740.351562 61.96875 740.359375 61.484375 740.054688 61.191406 " fill-opacity="1" fill-rule="nonzero"/><path fill="#4f4c4c" d="M 190.144531 91.375 C 189.546875 91.972656 188.769531 92.265625 187.980469 92.265625 C 187.195312 92.265625 186.414062 91.972656 185.808594 91.375 C 185.210938 90.777344 184.917969 89.996094 184.917969 89.210938 C 184.917969 88.421875 185.210938 87.644531 185.808594 87.039062 C 186.113281 86.742188 186.113281 86.257812 185.808594 85.957031 C 185.515625 85.660156 185.03125 85.660156 184.726562 85.957031 C 183.835938 86.855469 183.382812 88.039062 183.382812 89.210938 C 183.382812 90.382812 183.835938 91.5625 184.726562 92.457031 C 185.628906 93.347656 186.808594 93.804688 187.980469 93.804688 C 189.152344 93.804688 190.335938 93.347656 191.226562 92.457031 C 191.53125 92.160156 191.53125 91.667969 191.226562 91.375 C 190.933594 91.070312 190.449219 91.070312 190.144531 91.375 " fill-opacity="1" fill-rule="nonzero"/><path fill="#4f4c4c" d="M 175.097656 92.457031 C 175.996094 93.347656 177.179688 93.804688 178.351562 93.804688 C 179.523438 93.804688 180.703125 93.347656 181.597656 92.457031 C 182.496094 91.5625 182.941406 90.382812 182.941406 89.210938 C 182.941406 88.039062 182.496094 86.855469 181.597656 85.957031 C 181.300781 85.660156 180.816406 85.652344 180.515625 85.957031 C 180.21875 86.257812 180.21875 86.742188 180.515625 87.039062 C 181.113281 87.644531 181.414062 88.421875 181.414062 89.210938 C 181.414062 89.996094 181.113281 90.777344 180.515625 91.375 C 179.917969 91.972656 179.136719 92.265625 178.351562 92.265625 C 177.5625 92.265625 176.785156 91.972656 176.1875 91.375 C 175.882812 91.070312 175.398438 91.070312 175.097656 91.375 C 174.800781 91.667969 174.800781 92.152344 175.105469 92.457031 " fill-opacity="1" fill-rule="nonzero"/><path fill="#4f4c4c" d="M 176.179688 97.132812 C 176.785156 96.535156 177.5625 96.238281 178.351562 96.230469 C 179.136719 96.238281 179.917969 96.535156 180.515625 97.132812 C 181.113281 97.738281 181.414062 98.507812 181.414062 99.296875 C 181.414062 100.082031 181.113281 100.863281 180.515625 101.46875 C 180.21875 101.761719 180.21875 102.246094 180.515625 102.550781 C 180.816406 102.84375 181.300781 102.84375 181.597656 102.550781 C 182.496094 101.648438 182.941406 100.476562 182.941406 99.296875 C 182.941406 98.125 182.496094 96.941406 181.597656 96.050781 C 180.703125 95.15625 179.523438 94.703125 178.351562 94.703125 C 177.179688 94.703125 175.996094 95.15625 175.105469 96.050781 C 174.800781 96.351562 174.800781 96.835938 175.097656 97.132812 C 175.398438 97.433594 175.882812 97.433594 176.1875 97.132812 " fill-opacity="1" fill-rule="nonzero"/><path fill="#4f4c4c" d="M 191.226562 96.050781 C 190.335938 95.15625 189.152344 94.703125 187.980469 94.703125 C 186.808594 94.703125 185.628906 95.15625 184.726562 96.050781 C 183.835938 96.941406 183.382812 98.125 183.390625 99.296875 C 183.382812 100.46875 183.835938 101.648438 184.726562 102.550781 C 185.03125 102.84375 185.515625 102.84375 185.808594 102.550781 C 186.113281 102.253906 186.113281 101.761719 185.816406 101.46875 C 185.210938 100.863281 184.917969 100.082031 184.917969 99.296875 C 184.917969 98.507812 185.210938 97.730469 185.808594 97.132812 C 186.414062 96.535156 187.195312 96.238281 187.980469 96.230469 C 188.769531 96.238281 189.546875 96.535156 190.144531 97.132812 C 190.449219 97.433594 190.933594 97.433594 191.226562 97.132812 C 191.53125 96.835938 191.53125 96.351562 191.226562 96.050781 " fill-opacity="1" fill-rule="nonzero"/><path fill="#4f4c4c" d="M 704.988281 341.003906 L 739.214844 341.003906 C 739.640625 341.003906 739.980469 340.664062 739.980469 340.238281 C 739.980469 339.816406 739.640625 339.476562 739.214844 339.476562 L 704.988281 339.476562 C 704.566406 339.476562 704.226562 339.816406 704.226562 340.238281 C 704.226562 340.664062 704.566406 341.003906 704.988281 341.003906 " fill-opacity="1" fill-rule="nonzero"/><path fill="#4f4c4c" d="M 744.632812 341.003906 L 753.664062 341.003906 C 754.089844 341.003906 754.429688 340.664062 754.429688 340.238281 C 754.429688 339.816406 754.089844 339.476562 753.664062 339.476562 L 744.632812 339.476562 C 744.214844 339.476562 743.867188 339.816406 743.867188 340.238281 C 743.867188 340.664062 744.214844 341.003906 744.632812 341.003906 " fill-opacity="1" fill-rule="nonzero"/><path fill="#4f4c4c" d="M 714.878906 331.8125 L 749.101562 331.8125 C 749.527344 331.8125 749.867188 331.46875 749.867188 331.046875 C 749.867188 330.621094 749.527344 330.28125 749.101562 330.28125 L 714.878906 330.28125 C 714.453125 330.28125 714.113281 330.621094 714.113281 331.046875 C 714.113281 331.46875 714.453125 331.8125 714.878906 331.8125 " fill-opacity="1" fill-rule="nonzero"/><path fill="#4f4c4c" d="M 754.527344 331.8125 L 763.550781 331.8125 C 763.976562 331.8125 764.316406 331.46875 764.316406 331.046875 C 764.316406 330.621094 763.976562 330.28125 763.550781 330.28125 L 754.527344 330.28125 C 754.105469 330.28125 753.753906 330.621094 753.753906 331.046875 C 753.753906 331.46875 754.105469 331.8125 754.527344 331.8125 " fill-opacity="1" fill-rule="nonzero"/><path fill="#4f4c4c" d="M 636.601562 618.441406 L 670.824219 618.441406 C 671.242188 618.441406 671.589844 618.09375 671.589844 617.671875 C 671.589844 617.246094 671.242188 616.90625 670.824219 616.90625 L 636.601562 616.90625 C 636.167969 616.90625 635.828125 617.246094 635.828125 617.671875 C 635.828125 618.09375 636.167969 618.441406 636.601562 618.441406 " fill-opacity="1" fill-rule="nonzero"/><path fill="#4f4c4c" d="M 676.242188 618.441406 L 685.273438 618.441406 C 685.691406 618.441406 686.039062 618.09375 686.039062 617.671875 C 686.039062 617.246094 685.691406 616.90625 685.273438 616.90625 L 676.242188 616.90625 C 675.820312 616.90625 675.46875 617.246094 675.46875 617.671875 C 675.46875 618.09375 675.820312 618.441406 676.242188 618.441406 " fill-opacity="1" fill-rule="nonzero"/><path fill="#4f4c4c" d="M 646.480469 609.25 L 680.707031 609.25 C 681.128906 609.25 681.476562 608.910156 681.476562 608.484375 C 681.476562 608.0625 681.128906 607.714844 680.707031 607.714844 L 646.480469 607.714844 C 646.0625 607.714844 645.714844 608.0625 645.714844 608.484375 C 645.714844 608.910156 646.0625 609.25 646.480469 609.25 " fill-opacity="1" fill-rule="nonzero"/><path fill="#4f4c4c" d="M 686.128906 609.25 L 695.15625 609.25 C 695.578125 609.25 695.925781 608.910156 695.925781 608.484375 C 695.925781 608.0625 695.578125 607.714844 695.15625 607.714844 L 686.128906 607.714844 C 685.707031 607.714844 685.367188 608.0625 685.367188 608.484375 C 685.367188 608.910156 685.707031 609.25 686.128906 609.25 " fill-opacity="1" fill-rule="nonzero"/><path fill="#4f4c4c" d="M 549.609375 157.675781 L 583.832031 157.675781 C 584.257812 157.675781 584.597656 157.328125 584.597656 156.910156 C 584.597656 156.488281 584.257812 156.140625 583.832031 156.140625 L 549.609375 156.140625 C 549.183594 156.140625 548.84375 156.488281 548.84375 156.910156 C 548.84375 157.328125 549.183594 157.675781 549.609375 157.675781 " fill-opacity="1" fill-rule="nonzero"/><path fill="#4f4c4c" d="M 589.257812 157.675781 L 598.28125 157.675781 C 598.707031 157.675781 599.046875 157.328125 599.046875 156.910156 C 599.046875 156.488281 598.707031 156.140625 598.28125 156.140625 L 589.257812 156.140625 C 588.832031 156.140625 588.484375 156.488281 588.484375 156.910156 C 588.484375 157.328125 588.832031 157.675781 589.257812 157.675781 " fill-opacity="1" fill-rule="nonzero"/><path fill="#4f4c4c" d="M 559.496094 148.480469 L 593.71875 148.480469 C 594.144531 148.480469 594.484375 148.140625 594.484375 147.71875 C 594.484375 147.292969 594.144531 146.953125 593.71875 146.953125 L 559.496094 146.953125 C 559.070312 146.953125 558.730469 147.292969 558.730469 147.71875 C 558.730469 148.140625 559.070312 148.480469 559.496094 148.480469 " fill-opacity="1" fill-rule="nonzero"/><path fill="#4f4c4c" d="M 599.136719 148.480469 L 608.171875 148.480469 C 608.59375 148.480469 608.933594 148.140625 608.933594 147.71875 C 608.933594 147.292969 608.59375 146.953125 608.171875 146.953125 L 599.136719 146.953125 C 598.722656 146.953125 598.371094 147.292969 598.371094 147.71875 C 598.371094 148.140625 598.722656 148.480469 599.136719 148.480469 " fill-opacity="1" fill-rule="nonzero"/><path fill="#4f4c4c" d="M 330.207031 60.265625 L 364.433594 60.265625 C 364.855469 60.265625 365.195312 59.917969 365.195312 59.496094 C 365.195312 59.078125 364.855469 58.730469 364.433594 58.730469 L 330.207031 58.730469 C 329.785156 58.730469 329.445312 59.078125 329.445312 59.496094 C 329.445312 59.917969 329.785156 60.265625 330.207031 60.265625 " fill-opacity="1" fill-rule="nonzero"/><path fill="#4f4c4c" d="M 369.855469 60.265625 L 378.882812 60.265625 C 379.304688 60.265625 379.648438 59.917969 379.648438 59.496094 C 379.648438 59.078125 379.304688 58.730469 378.882812 58.730469 L 369.855469 58.730469 C 369.433594 58.730469 369.09375 59.078125 369.09375 59.496094 C 369.09375 59.917969 369.433594 60.265625 369.855469 60.265625 " fill-opacity="1" fill-rule="nonzero"/><path fill="#4f4c4c" d="M 340.09375 51.074219 L 374.320312 51.074219 C 374.746094 51.074219 375.09375 50.734375 375.09375 50.308594 C 375.09375 49.886719 374.746094 49.542969 374.320312 49.542969 L 340.09375 49.542969 C 339.671875 49.542969 339.332031 49.886719 339.332031 50.308594 C 339.332031 50.734375 339.671875 51.074219 340.09375 51.074219 " fill-opacity="1" fill-rule="nonzero"/><path fill="#4f4c4c" d="M 379.746094 51.074219 L 388.777344 51.074219 C 389.195312 51.074219 389.542969 50.734375 389.542969 50.308594 C 389.542969 49.886719 389.195312 49.542969 388.777344 49.542969 L 379.746094 49.542969 C 379.320312 49.542969 378.972656 49.886719 378.972656 50.308594 C 378.972656 50.734375 379.320312 51.074219 379.746094 51.074219 " fill-opacity="1" fill-rule="nonzero"/><g clip-path="url(#ec024cf5b2)"><path fill="#4f4c4c" d="M 46.472656 183.175781 L 80.699219 183.175781 C 81.121094 183.175781 81.460938 182.835938 81.460938 182.410156 C 81.460938 181.988281 81.121094 181.648438 80.699219 181.648438 L 46.472656 181.648438 C 46.050781 181.648438 45.710938 181.988281 45.710938 182.410156 C 45.710938 182.835938 46.050781 183.175781 46.472656 183.175781 " fill-opacity="1" fill-rule="nonzero"/></g><path fill="#4f4c4c" d="M 86.117188 183.175781 L 95.148438 183.175781 C 95.570312 183.175781 95.914062 182.835938 95.914062 182.410156 C 95.914062 181.988281 95.570312 181.648438 95.148438 181.648438 L 86.117188 181.648438 C 85.699219 181.648438 85.351562 181.988281 85.351562 182.410156 C 85.351562 182.835938 85.699219 183.175781 86.117188 183.175781 " fill-opacity="1" fill-rule="nonzero"/><path fill="#4f4c4c" d="M 56.359375 173.980469 L 90.585938 173.980469 C 91.011719 173.980469 91.351562 173.640625 91.351562 173.21875 C 91.351562 172.792969 91.011719 172.453125 90.585938 172.453125 L 56.359375 172.453125 C 55.9375 172.453125 55.597656 172.792969 55.597656 173.21875 C 55.597656 173.640625 55.9375 173.980469 56.359375 173.980469 " fill-opacity="1" fill-rule="nonzero"/><path fill="#4f4c4c" d="M 96.003906 173.980469 L 105.035156 173.980469 C 105.460938 173.980469 105.800781 173.640625 105.800781 173.21875 C 105.800781 172.792969 105.460938 172.453125 105.035156 172.453125 L 96.003906 172.453125 C 95.585938 172.453125 95.238281 172.792969 95.238281 173.21875 C 95.238281 173.640625 95.585938 173.980469 96.003906 173.980469 " fill-opacity="1" fill-rule="nonzero"/><path fill="#4f4c4c" d="M 75.757812 494.011719 L 109.984375 494.011719 C 110.40625 494.011719 110.746094 493.664062 110.746094 493.25 C 110.746094 492.824219 110.40625 492.484375 109.984375 492.484375 L 75.757812 492.484375 C 75.335938 492.484375 74.988281 492.824219 74.988281 493.25 C 74.988281 493.664062 75.335938 494.011719 75.757812 494.011719 " fill-opacity="1" fill-rule="nonzero"/><path fill="#4f4c4c" d="M 115.398438 494.011719 L 124.433594 494.011719 C 124.855469 494.011719 125.199219 493.664062 125.199219 493.25 C 125.199219 492.824219 124.855469 492.484375 124.433594 492.484375 L 115.398438 492.484375 C 114.976562 492.484375 114.636719 492.824219 114.636719 493.25 C 114.636719 493.664062 114.976562 494.011719 115.398438 494.011719 " fill-opacity="1" fill-rule="nonzero"/><path fill="#4f4c4c" d="M 85.644531 484.820312 L 119.871094 484.820312 C 120.296875 484.820312 120.636719 484.480469 120.636719 484.054688 C 120.636719 483.632812 120.296875 483.292969 119.871094 483.292969 L 85.644531 483.292969 C 85.222656 483.292969 84.875 483.632812 84.875 484.054688 C 84.875 484.480469 85.222656 484.820312 85.644531 484.820312 " fill-opacity="1" fill-rule="nonzero"/><path fill="#4f4c4c" d="M 125.289062 484.820312 L 134.320312 484.820312 C 134.746094 484.820312 135.085938 484.480469 135.085938 484.054688 C 135.085938 483.632812 134.746094 483.292969 134.320312 483.292969 L 125.289062 483.292969 C 124.863281 483.292969 124.523438 483.632812 124.523438 484.054688 C 124.523438 484.480469 124.863281 484.820312 125.289062 484.820312 " fill-opacity="1" fill-rule="nonzero"/><path fill="#4f4c4c" d="M 669.957031 248.371094 L 669.191406 248.371094 C 669.191406 250.203125 667.707031 251.683594 665.878906 251.691406 C 664.046875 251.683594 662.5625 250.210938 662.5625 248.371094 C 662.5625 246.539062 664.046875 245.0625 665.878906 245.058594 C 667.707031 245.0625 669.191406 246.539062 669.191406 248.371094 L 670.726562 248.371094 C 670.71875 245.699219 668.554688 243.527344 665.878906 243.527344 C 663.199219 243.527344 661.027344 245.699219 661.027344 248.371094 C 661.027344 251.050781 663.199219 253.222656 665.878906 253.222656 C 668.554688 253.222656 670.71875 251.050781 670.726562 248.371094 L 669.957031 248.371094 " fill-opacity="1" fill-rule="nonzero"/><g clip-path="url(#fa0704bee6)"><path fill="#4f4c4c" d="M 570.796875 50.308594 L 570.035156 50.308594 C 570.035156 52.140625 568.550781 53.625 566.71875 53.625 C 564.890625 53.625 563.40625 52.140625 563.40625 50.308594 C 563.40625 48.476562 564.890625 46.996094 566.71875 46.988281 C 568.550781 46.996094 570.035156 48.476562 570.035156 50.308594 L 571.570312 50.308594 C 571.570312 47.628906 569.398438 45.457031 566.71875 45.457031 C 564.042969 45.457031 561.871094 47.628906 561.871094 50.308594 C 561.871094 52.988281 564.042969 55.152344 566.71875 55.160156 C 569.398438 55.152344 571.570312 52.988281 571.570312 50.308594 L 570.796875 50.308594 " fill-opacity="1" fill-rule="nonzero"/></g><g clip-path="url(#2b52f2764b)"><path fill="#4f4c4c" d="M 54.636719 340.238281 L 53.871094 340.238281 C 53.863281 342.070312 52.382812 343.554688 50.550781 343.554688 C 48.71875 343.554688 47.246094 342.070312 47.238281 340.238281 C 47.246094 338.410156 48.71875 336.925781 50.550781 336.917969 C 52.382812 336.925781 53.863281 338.410156 53.871094 340.238281 L 55.402344 340.238281 C 55.402344 337.5625 53.230469 335.390625 50.550781 335.390625 C 47.871094 335.390625 45.710938 337.5625 45.710938 340.238281 C 45.710938 342.917969 47.871094 345.082031 50.550781 345.089844 C 53.230469 345.082031 55.402344 342.917969 55.402344 340.238281 L 54.636719 340.238281 " fill-opacity="1" fill-rule="nonzero"/></g><path stroke-linecap="butt" transform="matrix(0.751656, 0, 0, 0.75, 258.699718, 271.482458)" fill="none" stroke-linejoin="miter" d="M -0.000663781 3.502557 L 77.827471 3.502557 " stroke="#000000" stroke-width="7" stroke-opacity="1" stroke-miterlimit="4"/><path stroke-linecap="butt" transform="matrix(0.751656, 0, 0, 0.75, 538.338384, 271.482458)" fill="none" stroke-linejoin="miter" d="M 0.00194149 3.502557 L 77.830076 3.502557 " stroke="#000000" stroke-width="7" stroke-opacity="1" stroke-miterlimit="4"/></svg>